<?xml version="1.0" standalone="no"?>
<!DOCTYPE svg PUBLIC "-//W3C//DTD SVG 20010904//EN"
 "http://www.w3.org/TR/2001/REC-SVG-20010904/DTD/svg10.dtd">
<svg version="1.0" xmlns="http://www.w3.org/2000/svg"
 width="250.000000pt" height="33.000000pt" viewBox="0 0 250.000000 33.000000"
 preserveAspectRatio="xMidYMid meet">

<g transform="translate(0.000000,33.000000) scale(0.100000,-0.100000)"
fill="#000000" stroke="none">
<path d="M1016 272 c-2 -4 -12 -50 -20 -102 -9 -52 -19 -105 -21 -117 -5 -20
-1 -23 24 -23 31 0 33 4 46 67 12 59 28 51 21 -11 l-7 -56 29 0 c25 0 30 5 36
31 17 87 -1 138 -44 124 -20 -6 -21 -4 -14 44 6 50 6 51 -19 51 -14 0 -28 -4
-31 -8z"/>
<path d="M1605 248 c-51 -10 -65 -20 -65 -51 0 -12 6 -17 18 -15 11 2 20 -1
21 -7 3 -13 -9 -114 -16 -132 -4 -9 5 -13 30 -13 l34 0 18 110 c10 61 16 112
14 113 -2 2 -26 -1 -54 -5z"/>
<path d="M1763 249 c-72 -21 -105 -139 -54 -193 31 -33 71 -33 110 -1 58 49
65 144 14 185 -14 11 -28 20 -32 19 -3 0 -20 -5 -38 -10z m37 -92 c0 -43 -13
-67 -37 -67 -19 0 -16 70 4 92 25 28 33 22 33 -25z"/>
<path d="M1963 247 c-31 -6 -53 -15 -53 -23 0 -7 -3 -20 -7 -30 -5 -14 -2 -16
21 -12 28 6 28 5 22 -31 -21 -124 -22 -121 12 -121 33 0 32 -4 52 120 6 36 13
75 15 88 3 12 2 21 -2 21 -5 -1 -32 -6 -60 -12z"/>
<path d="M480 220 c0 -26 4 -30 26 -30 22 0 25 -3 20 -23 -3 -13 -8 -49 -12
-80 l-7 -57 31 0 c30 0 30 1 44 77 13 71 16 78 38 82 28 3 40 17 40 44 0 15
-11 17 -90 17 l-90 0 0 -30z"/>
<path d="M683 178 c-60 -16 -84 -88 -41 -128 26 -24 58 -26 97 -5 61 31 55
116 -9 137 -8 3 -29 1 -47 -4z m37 -67 c0 -11 -5 -23 -11 -27 -15 -9 -33 12
-26 30 9 23 37 20 37 -3z"/>
<path d="M1225 183 c-62 -15 -90 -105 -43 -137 57 -40 137 1 138 70 0 46 -46
78 -95 67z m35 -67 c0 -20 -26 -40 -35 -26 -10 16 2 40 20 40 8 0 15 -6 15
-14z"/>
<path d="M817 163 c-29 -103 -14 -131 68 -132 l54 0 11 57 c6 31 12 65 14 75
3 13 -3 17 -29 17 -31 0 -33 -2 -39 -50 -4 -28 -12 -50 -18 -50 -7 0 -9 17 -5
50 6 50 6 50 -23 50 -19 0 -30 -6 -33 -17z"/>
<path d="M1357 173 c-3 -5 -8 -31 -12 -59 -9 -68 7 -84 79 -84 l53 0 12 57
c17 85 15 93 -17 93 -26 0 -29 -4 -38 -47 -5 -25 -15 -49 -23 -51 -9 -3 -11 2
-8 14 3 11 8 34 12 52 6 30 5 32 -24 32 -16 0 -32 -3 -34 -7z"/>
</g>
</svg>
